<?xml version="1.0" standalone="no"?><svg xmlns="http://www.w3.org/2000/svg" viewBox="0 0 1440 320"><path fill="#2124b1" fill-opacity="1" d="M0,224L24,229.3C48,235,96,245,144,240C192,235,240,213,288,197.3C336,181,384,171,432,160C480,149,528,139,576,160C624,181,672,235,720,245.3C768,256,816,224,864,197.3C912,171,960,149,1008,154.7C1056,160,1104,192,1152,218.7C1200,245,1248,267,1296,245.3C1344,224,1392,160,1416,128L1440,96L1440,0L1416,0C1392,0,1344,0,1296,0C1248,0,1200,0,1152,0C1104,0,1056,0,1008,0C960,0,912,0,864,0C816,0,768,0,720,0C672,0,624,0,576,0C528,0,480,0,432,0C384,0,336,0,288,0C240,0,192,0,144,0C96,0,48,0,24,0L0,0Z"></path></svg>